<?xml version="1.0" standalone="no"?>
<!DOCTYPE svg PUBLIC "-//W3C//DTD SVG 20010904//EN"
 "http://www.w3.org/TR/2001/REC-SVG-20010904/DTD/svg10.dtd">
<svg version="1.0" xmlns="http://www.w3.org/2000/svg"
 width="100.000000pt" height="100.000000pt" viewBox="0 0 100.000000 100.000000"
 preserveAspectRatio="xMidYMid meet">
<metadata>
Created by potrace 1.11, written by Peter Selinger 2001-2013
</metadata>
<g transform="translate(0.000000,100.000000) scale(0.100000,-0.100000)"
fill="#000000" stroke="none">
<path d="M725 838 c-11 -6 -56 -46 -100 -88 l-80 -77 -167 35 -168 36 -25 -24
c-14 -13 -25 -26 -25 -30 0 -6 69 -52 202 -135 l46 -29 -46 -60 c-26 -34 -51
-64 -55 -67 -4 -3 -33 -2 -63 4 -47 8 -58 7 -75 -8 -10 -10 -19 -22 -19 -26 0
-4 27 -24 60 -44 50 -30 59 -39 49 -51 -15 -19 -4 -30 15 -15 12 10 21 1 51
-49 20 -33 40 -60 44 -60 4 0 16 9 25 19 16 18 17 60 1 121 -2 9 22 35 64 66
l67 52 78 -124 c43 -68 82 -124 85 -124 4 0 18 11 30 24 l23 25 -34 170 -35
169 74 74 c41 40 81 85 89 100 17 33 18 100 2 116 -15 15 -86 15 -113 0z"/>
</g>
</svg>
